<svg class="icon" xmlns="http://www.w3.org/2000/svg" width="150" height="150" viewBox="0 0 150 150"><path d="M74.9 4.3v141.1c40 0 70.5-33.6 70.5-70.5C145.4 37.2 114.9 4.3 74.9 4.3z" fill="#9DC2C5"/><path d="M4.7 74.9c0 37.4 30.5 70.5 70.5 70.5V4.3C35.2 4.3 4.7 37.4 4.7 74.9z" fill="#86B6B9"/><path d="M74.9 149.8C33.6 149.8 0 116.2 0 74.9 0 33.6 33.6 0 74.9 0c41.3 0 74.9 33.6 74.9 74.9C149.8 116.2 116.2 149.8 74.9 149.8zM74.9 4.8c-38.6 0-70 31.4-70 70 0 38.6 31.4 70 70 70 38.6 0 70-31.4 70-70C144.9 36.3 113.5 4.8 74.9 4.8z" fill="#231F20"/><path d="M84.8 34.2l-6-10.2c23.2 1.4 43.1 18.6 47 42.5 0.5 2.9 0.7 5.9 0.7 8.8l-10.1 6.4 -8-5.1c0.1-2.3 0-4.7-0.4-7.1 -2.4-14.8-14.4-25.6-28.6-27.2L84.8 34.2zM43 72.4c1.1-14.8 12.1-27.4 27.3-30 2.2-0.4 4.4-0.5 6.5-0.4l5.4-7.9 -6-10.2c-2.9 0-5.9 0.2-8.9 0.7C43.8 28.5 26.6 48.2 25 71.1l8.2-5.1L43 72.4zM74.8 107.5C59.4 107.1 46 95.9 43.4 80.1c-0.3-1.7-0.4-3.5-0.4-5.2l-9.7-6.3 -8.3 5.1c-0.1 3.1 0.1 6.2 0.7 9.4 3.9 23.4 23.2 40.5 45.8 42.4l-4.1-8L74.8 107.5zM108.2 78.9c-1.8 14-12.5 25.7-27.2 28.2 -1.2 0.2-2.3 0.3-3.5 0.4l-7.8 10.2 4.1 7.9c3.3 0.1 6.7-0.1 10.1-0.6 23.9-3.9 41.1-23.9 42.5-47.1l-10 6.3L108.2 78.9z" fill="#FFF"/></svg>