<svg class="icon" xmlns="http://www.w3.org/2000/svg" width="150" height="150" viewBox="0 0 150 150"><path d="M75 4.8V145c39.9 0 70-32.5 70-70C145 38.5 114.9 4.8 75 4.8z" fill="#B166C9"/><path d="M4.8 75c0 36.8 30.4 70 70.3 70V4.8C35.1 4.8 4.8 37.8 4.8 75z" fill="#9A3CBB"/><path d="M75 149.6c-41.1 0-74.6-33.5-74.6-74.6C0.4 33.9 33.9 0.4 75 0.4s74.6 33.5 74.6 74.6S116.1 149.6 75 149.6zM75 5.2C36.5 5.2 5.2 36.5 5.2 75s31.3 69.8 69.8 69.8 69.8-31.3 69.8-69.8S113.5 5.2 75 5.2z" fill="#231F20"/><path d="M21.4 45.8c0.6 0 1.1-0.1 1.7 0.1 2.7 0.7 5.5 1.4 8.2 2.1 0.8 0.2 1.7 0.4 2.5 0.6 1.5 0.4 3.1 0.6 4.6 0.9 2.3 0.5 4.7 0.8 7.1 1.2 1.9 0.2 3.8 0.8 5.7 0.8 0.8 0 1.5 0.3 2.3 0.3 1 0.1 2 0.1 3 0.3 1.7 0.1 3.3 0.3 5 0.4 0.7 0.1 1.5 0 2.2 0.1 1.6 0.1 3.2 0.2 4.9 0.2 0.4 0 0.9 0.1 1.3 0.1 1.8 0 3.6 0.1 5.5 0 0-0.3 0-0.7 0.1-1 0.6 0 1.2-0.2 1.7 0.2 0.4 0.4 0.3 1.1 0.5 1.6 0.5 0.1 1 0.2 1.5 0.3 0.9-0.2 2.1-0.4 2.7 0.5 0.7-0.1 1.1 0.5 1.7 0.8 0.4-0.3 0.9-0.7 1.4-0.4 0.4 0.2 0.9 0.2 1.4 0.2 0.8 0.2 1.6 0 2.4 0.1 -0.3 0.5-0.5 1.1-1 1.4 -0.5 0.4-1.1 0.6-1.6 0.9 -0.4 0.3-0.9 0.5-1.2 0.9 0.3 0.1 0.6 0.2 0.9 0.4 0 0.3-0.1 0.6 0.2 0.8 0.4-0.2 0.7-0.5 1-0.7 0.4-0.3 1-0.3 1.3-0.6 0.8-0.6 1.4-1.5 2.5-1.7 0.6-0.2 1 0.4 1.5 0.6 -0.4 0.4-0.8 0.8-1.1 1.1 0.4 0.2 0.8 0.4 1.1 0.7 0.2 0.3 0.6 0.2 1 0.3 0.3 0 0.6-0.2 0.9-0.4 0.4-0.2 0.8-0.3 1.2-0.4 0.6-0.1 1.1-0.4 1.6-0.7 0.3 0.1 0.5 0.3 0.8 0.4 0 0.2 0 0.4 0 0.6 0.3 0 0.7 0 1 0 0.4 0.2 0.6 0.6 0.9 0.9 0.4 0 0.8 0 1.3 0 0 0.4 0.1 0.9-0.1 1.3 -0.2 0.4-0.7 0.4-1 0.5 0.6 0.2 1.4 0.3 1.8 0.9 0.3 0.4 0 1 0.3 1.4 0.3 0.5 0.2 1.1 0.1 1.6 0.6-0.1 1.3 0.2 1.6 0.8 0.3 0.7 0.6 1.4 0.7 2.2 0.1 0.7 0.1 1.4 0 2.1 -0.2 0.2-0.4 0.3-0.6 0.4 -0.4 0.5-0.5 1.1-0.7 1.7 0.4 0.1 0.8 0.3 1.3 0.4 0.4-0.2 0.8-0.4 1.3-0.4 0.4-0.4 0.8-0.8 1.3-1 0.5-0.3 1.1-0.5 1.5-0.9 0.8-0.7 1.8-1.3 2.3-2.2 -0.3-0.4-0.6-0.8-0.4-1.3 0.2-0.7 0.9-1 1.6-1.2 0.9-0.4 1.9 0 2.9-0.2 0.5-0.2 0.8-0.6 1.2-0.9 -0.2-0.3-0.5-0.7-0.5-1.1 0-0.6 0.6-0.9 0.9-1.3 0.4-1.1 1.1-2.1 2.1-2.7 2.2-0.5 4.3-1 6.4-1.6 0.1-0.3 0-0.6 0.3-0.8s0.6-0.4 0.9-0.6c0.2-0.4 0.4-0.8 0.5-1.3 0-0.6-0.3-1.2 0.1-1.8 -0.1-0.4-0.1-0.7 0-1.1 0.3-0.8 0.4-1.6 0.8-2.4 0.2-0.4 0.7-0.5 1-0.8 0.2 0.2 0.4 0.4 0.6 0.5 0.4-0.2 0.7-0.6 1.2-0.5 0.8 0.1 1.6 0.7 1.8 1.5 0.3 1 0.6 2 0.9 3 0.3 0.1 0.7 0.2 1 0.3 0 0.3 0 0.5 0.1 0.8 0.2 0.1 0.5 0 0.7 0.2 0.4 0.6 0.6 1.4 0.4 2.1 -0.5 0.7-1.4 1-1.7 1.8 -0.2 0-0.4 0-0.7 0 -0.3 0.3-0.5 0.6-0.9 0.8 -0.1 1-1.2 1.4-1.7 2.2 -0.1 0-0.2 0-0.3 0 -0.2 0.8-0.6 1.5-0.7 2.4 0.2 0.3 0.4 0.5 0.5 0.8 -0.1 0.2-0.2 0.4-0.3 0.6 0.2 0.1 0.3 0.2 0.5 0.4 0-0.1 0.1-0.3 0.1-0.5 0.5 0 1 0 1.3 0.4 0.5 0.6 0.7 1.3 0.7 2.1 -0.6 0-1.1 0.2-1.6 0.5 -0.8 0.1-1.3 0.8-2 1.2 -0.1 0.4-0.2 1-0.5 1.3 -0.8 0.6-1.6 1.1-2.4 1.7 -0.3 0.3-0.7 0.4-1.1 0.6 0.1 0.6 0.2 1.3 0.2 1.9 -0.1 0.6-0.3 1.1-0.6 1.5 -0.4 0.5-0.4 1.3-0.9 1.8 0.5 0.8 0.2 1.8-0.1 2.6 -0.1 0.3-0.4 0.4-0.7 0.5 -0.4 0.2-0.9 0.5-1.4 0.3 0 0.4 0.2 0.7 0.3 1 0 0.2 0 0.5 0 0.7 0.3 0.1 0.6 0.2 0.9 0.3 0.3 0.5 0.3 1 0.4 1.5 0.2 0.3 0.5 0.5 0.7 0.8 -0.1 0.1-0.1 0.2-0.2 0.3 0.6 0.3 0.5 1 0.5 1.6 -0.2 0.6-0.7 1.1-1.2 1.4 0.2 0.1 0.3 0.2 0.5 0.3 -0.2 0.5-0.3 1.1-0.8 1.5 -0.4 0.3-1.1 0.3-1.4 0.7 -0.3 0.4-0.8 0.7-1.2 1 0 0.5 0 1.2-0.5 1.5s-1.1 0.1-1.5 0.5c-0.5 0.5-0.8 1.2-0.7 1.9 -0.9 0.8-1.5 1.9-2.6 2.5 -0.7 0.5-0.8 1.4-1.3 2.1 -0.4 0.5-0.4 1.3-0.6 1.9 -0.2 0.5 0 1 0.1 1.4 0.1 0.6 0.5 1.1 0.7 1.7 0.3 1 0.8 2 1.6 2.7 0.5 0.5 0.9 1.1 1.3 1.6 -0.1 0.3-0.3 0.6-0.1 0.9 0.3 0.5 0.6 0.9 0.8 1.4 0.3 0.7 1 1.3 1.2 2s0.1 1.4 0.2 2.1c0 0.3 0.1 0.6 0.2 0.9 0 0.3-0.2 0.6-0.3 0.8 0 0.4 0.1 0.9-0.2 1.3 -0.5 0.6-1.3 0.7-2 0.9 -0.5 0.2-1-0.2-1.1-0.7s-0.5-0.8-0.8-1.1c-0.3-0.1-0.7-0.1-0.9-0.4 -0.2-0.2-0.3-0.5-0.4-0.8 -0.1-0.5-0.6-0.7-0.8-1 -0.3-0.5-1-0.6-1.3-1.2s-0.7-1-0.9-1.6c-0.2-0.2-0.5-0.4-0.6-0.7 -0.3-1.1 0.5-2.3-0.2-3.3 -1-0.3-1.7-1.1-2.3-1.8 -0.3-0.2-0.6-0.4-1-0.5 -0.1 0.2-0.2 0.4-0.2 0.6 -0.7 0-1.2 0.6-1.9 0.8 -0.5 0.2-1.1 0.3-1.6 0.3 -0.1-0.4-0.2-0.7-0.3-1.1 -0.7-0.3-1.5-0.7-2.3-0.8 -1.2 0-2.3 0.9-3.6 0.7 0-0.1-0.2-0.2-0.2-0.3 -0.7 0.4-1.6 0.2-2.4 0.3 0.1 0.3 0.1 0.7 0 1 -0.2 0.3-0.5 0.6-0.7 0.9 0.4 0.2 0.9 0.3 1.3 0.7 0.3 0.5-0.1 1.2-0.6 1.4 -0.4 0.1-0.8 0.3-1.2 0.5 -0.1-0.3-0.2-0.7-0.3-1 -0.1-0.1-0.3-0.1-0.4-0.2 -0.2 0.2-0.4 0.5-0.7 0.6 -0.3 0.1-0.7-0.1-1-0.2 -0.7 0.4-1.6 0.3-2.2-0.3 -0.4-0.5-1-0.7-1.5-1.1 0 0.1-0.1 0.3-0.1 0.4 -1 0.1-2.1 0.1-3.1-0.2 -0.4-0.1-0.9-0.1-1.4-0.2 0 0.1-0.1 0.2-0.2 0.3 -1 0.4-2 0.6-2.9 1.1 -0.4 0.2-0.5 0.7-0.9 1 -0.8 0.6-1.7 1.1-2.7 1.3 0 0.2 0 0.4-0.1 0.5 -0.4 0.1-0.8 0-1.1 0.3 -0.5 0.3-0.7 0.9-1.1 1.3 -0.3 0.8-0.5 1.6-0.7 2.4 0.2 0.6 0.3 1.3 0.7 1.9 0.2 0.3 0.5 0.8 0.2 1.1 -0.3 0.3-0.8 0.5-1.2 0.7 -0.4-0.1-0.8-0.5-1.2-0.7 -0.4-0.1-0.8 0-1.2-0.2 -0.5-0.2-0.8-0.5-1.3-0.7 -0.4-0.2-0.8-0.3-1.2-0.5 -0.4-0.9-1-1.8-1.2-2.8 -0.1-0.3 0-0.7-0.3-1 -0.4-0.4-0.7-0.9-1.1-1.4 -0.8-0.9-0.9-2.2-1.6-3.2 -0.4-0.4-0.7-0.8-1.1-1.1 -0.5-0.2-1-0.4-1.5-0.6 -0.4-0.2-0.8-0.1-1.2 0 -0.3 0.7-0.6 1.4-1.2 1.9 -0.2 0.2-0.6 0.2-0.9 0.2 -0.6-0.1-1.1-0.5-1.7-0.9 -0.6-0.4-1.3-0.9-1.8-1.4 -0.4-0.5-0.7-1.1-0.7-1.8 0-0.5-0.3-0.9-0.4-1.4 -1.1-0.7-1.7-1.8-2.6-2.6 -0.3-0.3-0.5-0.6-0.7-0.9 -1.1-0.2-2.2-0.3-3.3-0.4 -0.1 0.4-0.1 0.7-0.3 1.1 -0.6 0.1-1.2 0-1.8 0s-1.1-0.2-1.7-0.3c-1-0.1-1.9-0.3-2.9-0.4 -0.6-0.1-1.3-0.2-1.9-0.4 -2.6-1.5-5.2-3-7.7-4.5 -0.4-0.2-1-0.5-1-1.1 -1.8-0.2-3.7-0.3-5.5-0.6C22.1 96.7 22 96 22 95.4c0-0.4-0.1-0.9-0.4-1.2 -0.3-0.4-0.5-0.8-1-1 -0.5-0.3-1-0.6-1.5-1 0.3 0 0.6-0.1 1-0.1 -0.5-0.1-1.1-0.3-1.4-0.6 -0.2-0.3-0.3-0.5-0.5-0.8 -0.9-0.5-1.9-0.5-2.7-1.2 -0.5-0.5-0.1-1.3 0.1-1.9 -0.2-0.3-0.3-0.6-0.3-0.9 0-0.4-0.3-0.6-0.4-0.9 -0.4-0.6-0.4-1.4-0.8-1.9 -0.5-0.6-0.4-1.6 0.1-2.1 -0.3-0.3-0.8-0.7-0.9-1.2 0-0.6-0.1-1.3 0.2-1.9 -0.3-0.3-0.6-0.6-0.9-0.8 0.1-0.5 0.4-1.1 0-1.6 -0.3-0.5-0.7-1.1-0.7-1.7 0-0.4 0.1-0.8 0.1-1.2 0-0.4 0.3-0.7 0.4-1 -0.2-0.8-0.7-1.4-0.7-2.2 0-0.6 0.3-1.1 0.7-1.5s0.6-1 0.9-1.5c0.2-1.2-0.2-2.4 0.3-3.5 0-0.3-0.1-0.5-0.1-0.8 0.1-0.3 0.4-0.5 0.5-0.8 0.2-0.3 0.3-0.6 0.5-0.9 0.9-1 1.3-2.3 1.7-3.6 0.5-1 0.8-2.1 1.2-3.1 0.3-0.6 0.1-1.4 0.4-2 0.3-0.7 0.2-1.4 0.2-2.1 0-0.4 0.1-0.8 0.1-1.2 -0.1-0.4-0.3-0.9-0.2-1.3 0.1-0.5 0.2-0.9 0.2-1.4 0.4 0 0.7 0 1.1 0.1 0.5 0.3 0.9 0.7 1.4 1s1 0.5 1.5 0.7c0.1-0.2 0.2-0.4 0.3-0.6C21.3 46.8 21.3 46.3 21.4 45.8zM95.3 62c-0.6 0.2-1 0.8-1.5 1.2 -0.1 0-0.3-0.1-0.4-0.1 0.5 0.8-0.1 1.7-0.4 2.4 -0.3 0.6-0.2 1.2-0.4 1.7 -0.2 0.5 0 1-0.1 1.5 -0.1 0.4-0.3 0.8-0.2 1.2 0 0.5 0.3 0.9 0.3 1.3 0 0.5-0.1 1 0.2 1.4 0.2 0.4 0.4 0.8 0.5 1.2 0.3-0.2 0.6-0.3 0.8-0.6 0.5-0.7 0.7-1.6 0.6-2.4 -0.1-0.7-0.6-1.3-0.8-2 -0.1-0.5-0.1-0.9-0.1-1.4 -0.1-0.5 0.3-0.9 0.3-1.4 0-0.4 0-0.8 0.2-1.2 0.2-0.5 0.7-0.9 1-1.4 0.2-0.3 0.7-0.4 0.9-0.8 0.1-0.3 0.2-0.7 0.3-1C96.1 61.7 95.7 61.9 95.3 62z" style="fill:#FFF;opacity:0.5"/><path d="M125 63.3c-3.3 0-6.1 1.7-6.7 5.7h-7.7c-0.1-7-5.5-12.3-12.2-12.3 -4.7 0-8.7 2.5-10.8 6.4l-28.3-6.5c0-0.7-0.2-1.5-0.4-2.2 -1.3-3.5-5.3-5.3-8.8-4C48.4 51 47 52.3 46.3 54c-0.8 1.7-0.8 3.5-0.2 5.2s1.9 3.1 3.6 3.8c0.9 0.4 1.9 0.6 2.8 0.6 0.8 0 1.6-0.1 2.4-0.4 1.9-0.7 3.3-2.2 3.9-3.9l27.8 6.6c-0.2 0.9-0.4 2.2-0.4 3.2H25.5c-0.6-4-3.4-5.7-6.7-5.7 -3.8 0-6.8 3-6.8 6.7 0 3.8 3.1 6.6 6.8 6.6 3.3 0 6.1-2.7 6.7-5.7h61c0.2 1 0.4 1.5 0.6 2.1L41.9 91.4c-0.8-1-1.8-1.7-3-2.2 -3.5-1.3-7.5 0.5-8.8 4s0.5 7.5 4 8.8c0.8 0.3 1.6 0.4 2.4 0.4 2.8 0 5.4-1.7 6.4-4.4l0 0c0.5-1.4 0.5-2.8 0.2-4.1l45.3-18.3c0.6 0.9 1.4 1.7 2.3 2.4l-26.9 24.7c-1.1-0.8-2.4-1.2-3.9-1.2 -3.8 0-6.8 3.1-6.8 6.8 0 3.8 3.1 6.8 6.8 6.8 3.8 0 6.8-3.1 6.8-6.8 0-1.3-0.4-2.6-1.1-3.6L93 79.6c1.2 0.6 3 1 4 1.2v15.8c-3 0.6-5.4 3.4-5.4 6.7 0 3.8 3.1 6.8 6.9 6.8s6.9-3.1 6.9-6.8c0-3.3-2.4-6.1-5.4-6.7V80.8c2-0.2 3.5-0.9 5-1.8l7 7.1c-0.8 1.1-1.3 2.5-1.3 3.9 0 3.8 3.1 6.8 6.8 6.8 3.8 0 6.8-3.1 6.8-6.8 0-3.8-3.1-6.8-6.8-6.8 -1.3 0-2.5 0.4-3.6 1l-6.9-6.9c0.9-0.9 1.6-1.9 2.2-3v-0.1c0.5-0.9 0.8-2 1-3h8c0.6 3 3.4 5.6 6.7 5.6 3.8 0 6.8-2.9 6.8-6.7C131.8 66.2 128.7 63.3 125 63.3zM53.9 60.6c-1 0.4-2.1 0.3-3.1-0.1 -1-0.5-1.8-1.3-2.1-2.3 -0.4-1-0.3-2.1 0.1-3.1 0.5-1 1.3-1.8 2.3-2.1 0.5-0.2 1-0.3 1.4-0.3 1.7 0 3.2 1 3.8 2.7C57.1 57.4 56 59.8 53.9 60.6zM18.8 74c-2.3 0-4.1-1.8-4.1-4.1 0-2.3 1.8-4.1 4.1-4.1s4.1 1.8 4.1 4.1S21 74 18.8 74zM40.4 97.1c-0.8 2.1-3.2 3.2-5.3 2.4 -2.1-0.8-3.2-3.2-2.4-5.3 0.6-1.6 2.2-2.7 3.8-2.7 0.5 0 1 0.1 1.4 0.3C40.1 92.6 41.2 95 40.4 97.1zM59.9 112.5c-2.3 0-4.1-1.8-4.1-4.1 0-2.3 1.8-4.1 4.1-4.1s4.1 1.8 4.1 4.1S62.2 112.5 59.9 112.5zM102.6 103.3c0 2.3-1.8 4.1-4.1 4.1 -2.3 0-4.1-1.8-4.1-4.1 0-2.3 1.8-4.1 4.1-4.1C100.7 99.2 102.6 101 102.6 103.3zM121.7 89.9c0 2.3-1.8 4.1-4.1 4.1 -2.3 0-4.1-1.8-4.1-4.1 0-2.3 1.8-4.1 4.1-4.1C119.8 85.8 121.7 87.7 121.7 89.9zM106.8 72.9c-1.6 3.2-4.9 5.2-8.4 5.2 -5.2 0-9.5-4.2-9.5-9.5 0-5.2 4.2-9.5 9.5-9.5 5.2 0 9.5 4.2 9.5 9.5C107.8 70.2 107.5 71.6 106.8 72.9zM125 74c-2.3 0-4.1-1.8-4.1-4.1 0-2.3 1.8-4.1 4.1-4.1 2.3 0 4.1 1.8 4.1 4.1S127.2 74 125 74z" fill="#FFF"/></svg>