<svg class="icon" xmlns="http://www.w3.org/2000/svg" width="150" height="150" viewBox="0 0 150 150"><path d="M75 4.6v140.8c40 0 70.4-30.4 70.4-70.4C145.4 35 115 4.6 75 4.6z" fill="#B4C37C"/><path d="M4.6 75c0 40 30.4 70.4 70.4 70.4V4.6C35 4.6 4.6 35 4.6 75z" fill="#A4B95C"/><path d="M75 149.8c-41.3 0-74.8-33.6-74.8-74.8C0.2 33.7 33.7 0.2 75 0.2c41.3 0 74.8 33.6 74.8 74.8C149.8 116.3 116.3 149.8 75 149.8zM75 5C36.4 5 5 36.4 5 75c0 38.6 31.4 70 70 70 38.6 0 70-31.4 70-70C145 36.4 113.6 5 75 5z" fill="#231F20"/><path d="M119.1 112L95.8 88.6c-2-2-4.8-2.7-7.3-2.2L83.1 81c9.2-12.2 8.2-29.7-2.9-40.9 -12.2-12.2-32.1-12.2-44.3 0 -12.2 12.2-12.2 32.1 0 44.3C47 95.5 64.5 96.5 76.7 87.3l5.4 5.4c-0.5 2.6 0.2 5.3 2.2 7.3l23.3 23.3c3.2 3.2 8.3 3.2 11.5 0C122.3 120.2 122.3 115.1 119.1 112L119.1 112zM73.8 78.1c-8.7 8.7-22.9 8.7-31.6 0 -8.7-8.7-8.7-22.9 0-31.6 8.7-8.7 22.9-8.7 31.6 0C82.5 55.2 82.5 69.3 73.8 78.1L73.8 78.1zM73.8 78.1 48.6 121.8H33.2V98.8h15.4V121.8zM58 96.3c4.5 0 8.9-0.9 12.9-2.5v28H55.6V96.2C56.4 96.3 57.2 96.3 58 96.3zM58 81.8c-0.8 0-1.6-0.1-2.4-0.2V54.4h15.4v22.5C67.4 80.1 62.8 81.8 58 81.8zM86.7 80.7c3.7-5.8 5.4-12.4 5.3-18.9h0.9v22.1c-1.1-0.3-2.3-0.4-3.4-0.4L86.7 80.7zM82.4 102.1l10.5 10.5v9.2H77.6V92.1l1.7 1.7C79 96.8 80.2 99.9 82.4 102.1zM99.9 119.6l2.2 2.2h-2.2V119.6zM115.3 104.1L99.9 88.8V27.5h15.4V104.1z" fill="#FFF"/></svg>