<svg class="icon" xmlns="http://www.w3.org/2000/svg" width="150" height="150" viewBox="0 0 150 150"><path d="M75.6 4.8v140.4c36.2 0 69.2-30.4 69.6-69.7C145.5 36.2 112.9 4.8 75.6 4.8z" fill="#4B789F"/><path d="M5 74.3c-0.4 39.3 29.4 70.6 71.9 70.9V4.8C37.5 4.5 5.3 35 5 74.3z" fill="#006591"/><polygon points="133.1 69.8 115.4 69.6 115.5 51.8 86.6 51.6 86.4 69.3 68.6 69.2 68.4 98.1 86.1 98.3 86 116.1 114.9 116.3 115.1 98.6 132.9 98.7 " style="fill:#FFF;opacity:0.5"/><path d="M100.7 20.4c-1.2-2.2-3.4-3.7-6-3.7 -3.8 0-7 3-7 6.9 0 3.8 3 7 6.9 7 2.5 0 4.7-1.3 5.9-3.2 3.7 0.6 6.9 2.8 8.8 6.2 2.2 4 2.2 8.7-0.1 12.6l-22.4 38c-2.3 3.9-6.4 6.2-11 6.2S67.2 88 64.9 84L43.1 45.5c-2.2-4-2.2-8.7 0.1-12.6 1.9-3.3 5.1-5.4 8.8-6 1.2 2 3.4 3.3 5.8 3.3 3.8 0 7-3 7-6.9 0-3.8-3-7-6.9-7 -2.6 0-4.9 1.4-6.1 3.6 -6.1 0.7-11.4 4.1-14.5 9.5 -3.6 6.1-3.6 13.4-0.2 19.5l21.7 38.4c2.9 5.1 7.7 8.5 13.3 9.6L72 115.3c-0.1 13.5-6.2 25.1-14.8 29.9 2.9 0.7 6 1.3 9 1.7 7.5-7.1 12.5-18.6 12.6-31.6L79 96.9c5.6-0.9 10.5-4.2 13.5-9.3l22.4-38c3.6-6.1 3.6-13.3 0.2-19.5C112.1 24.7 106.8 21.1 100.7 20.4zM24.6 114.9l0.2-22c7.8-1.5 13.8-8.4 13.9-16.7 0.1-9.5-7.5-17.2-17-17.3s-17.2 7.5-17.3 17c-0.1 8.3 5.8 15.3 13.6 17l-0.2 22c0 1.7 0.1 3.3 0.2 4.9 2.7 3.4 5.7 6.6 8.9 9.5C25.4 124.8 24.6 120 24.6 114.9z" fill="#FFF"/><path d="M75 149.9c-0.2 0-0.5 0-0.7 0 -20-0.2-38.7-8.2-52.7-22.4C7.5 113.2-0.1 94.3 0.1 74.3 0.5 33.2 34 0.1 75 0.1c0.2 0 0.5 0 0.7 0 20 0.2 38.7 8.2 52.7 22.4 14 14.3 21.6 33.2 21.4 53.2C149.5 116.8 116 149.9 75 149.9zM75 4.9c-38.3 0-69.7 31-70 69.4C4.8 93 11.9 110.7 25.1 124c13.1 13.4 30.6 20.8 49.3 21 0.2 0 0.4 0 0.7 0 38.3 0 69.7-31 70-69.4 0.2-18.7-6.9-36.4-20.1-49.7 -13.1-13.4-30.6-20.8-49.3-21l0 0C75.4 4.9 75.2 4.9 75 4.9z" fill="#231F20"/></svg>