<svg class="icon" xmlns="http://www.w3.org/2000/svg" width="150" height="150" viewBox="0 0 150 150"><path d="M74.9 4.3v141.1c40 0 70.5-33.6 70.5-70.5 0-37.7-30.5-70.6-70.5-70.6z" fill="#9DC2C5"/><path d="M4.7 74.9c0 37.4 30.5 70.5 70.5 70.5V4.3c-40 0-70.5 33.1-70.5 70.6z" fill="#86B6B9"/><path d="M74.9 149.8C33.6 149.8 0 116.2 0 74.9 0 33.6 33.6 0 74.9 0c41.3 0 74.9 33.6 74.9 74.9 0 41.3-33.6 74.9-74.9 74.9zm0-145c-38.6 0-70 31.4-70 70s31.4 70 70 70 70-31.4 70-70c0-38.5-31.4-70-70-70z" fill="#231F20"/><path d="M84.8 34.2l-6-10.2c23.2 1.4 43.1 18.6 47 42.5.5 2.9.7 5.9.7 8.8l-10.1 6.4-8-5.1c.1-2.3 0-4.7-.4-7.1-2.4-14.8-14.4-25.6-28.6-27.2l5.4-8.1zM43 72.4c1.1-14.8 12.1-27.4 27.3-30 2.2-.4 4.4-.5 6.5-.4l5.4-7.9-6-10.2c-2.9 0-5.9.2-8.9.7C43.8 28.5 26.6 48.2 25 71.1l8.2-5.1 9.8 6.4zm31.8 35.1c-15.4-.4-28.8-11.6-31.4-27.4-.3-1.7-.4-3.5-.4-5.2l-9.7-6.3-8.3 5.1c-.1 3.1.1 6.2.7 9.4 3.9 23.4 23.2 40.5 45.8 42.4l-4.1-8 7.4-10zm33.4-28.6c-1.8 14-12.5 25.7-27.2 28.2-1.2.2-2.3.3-3.5.4l-7.8 10.2 4.1 7.9c3.3.1 6.7-.1 10.1-.6 23.9-3.9 41.1-23.9 42.5-47.1l-10 6.3-8.2-5.3z" fill="#FFF"/></svg>