<svg class="icon" xmlns="http://www.w3.org/2000/svg" width="150" height="150" viewBox="0 0 150 150"><path d="M75 4.8V145c39.9 0 70-32.5 70-70 0-36.5-30.1-70.2-70-70.2z" fill="#B166C9"/><path d="M4.8 75c0 36.8 30.4 70 70.3 70V4.8c-40 0-70.3 33-70.3 70.2z" fill="#9A3CBB"/><path d="M75 149.6C33.9 149.6.4 116.1.4 75 .4 33.9 33.9.4 75 .4s74.6 33.5 74.6 74.6-33.5 74.6-74.6 74.6zM75 5.2C36.5 5.2 5.2 36.5 5.2 75s31.3 69.8 69.8 69.8 69.8-31.3 69.8-69.8S113.5 5.2 75 5.2z" fill="#231F20"/><path d="M21.4 45.8c.6 0 1.1-.1 1.7.1 2.7.7 5.5 1.4 8.2 2.1.8.2 1.7.4 2.5.6 1.5.4 3.1.6 4.6.9 2.3.5 4.7.8 7.1 1.2 1.9.2 3.8.8 5.7.8.8 0 1.5.3 2.3.3 1 .1 2 .1 3 .3 1.7.1 3.3.3 5 .4.7.1 1.5 0 2.2.1 1.6.1 3.2.2 4.9.2.4 0 .9.1 1.3.1 1.8 0 3.6.1 5.5 0 0-.3 0-.7.1-1 .6 0 1.2-.2 1.7.2.4.4.3 1.1.5 1.6l1.5.3c.9-.2 2.1-.4 2.7.5.7-.1 1.1.5 1.7.8.4-.3.9-.7 1.4-.4.4.2.9.2 1.4.2.8.2 1.6 0 2.4.1-.3.5-.5 1.1-1 1.4-.5.4-1.1.6-1.6.9-.4.3-.9.5-1.2.9.3.1.6.2.9.4 0 .3-.1.6.2.8.4-.2.7-.5 1-.7.4-.3 1-.3 1.3-.6.8-.6 1.4-1.5 2.5-1.7.6-.2 1 .4 1.5.6l-1.1 1.1c.4.2.8.4 1.1.7.2.3.6.2 1 .3.3 0 .6-.2.9-.4.4-.2.8-.3 1.2-.4.6-.1 1.1-.4 1.6-.7.3.1.5.3.8.4v.6h1c.4.2.6.6.9.9h1.3c0 .4.1.9-.1 1.3s-.7.4-1 .5c.6.2 1.4.3 1.8.9.3.4 0 1 .3 1.4.3.5.2 1.1.1 1.6.6-.1 1.3.2 1.6.8.3.7.6 1.4.7 2.2.1.7.1 1.4 0 2.1-.2.2-.4.3-.6.4-.4.5-.5 1.1-.7 1.7.4.1.8.3 1.3.4.4-.2.8-.4 1.3-.4.4-.4.8-.8 1.3-1 .5-.3 1.1-.5 1.5-.9.8-.7 1.8-1.3 2.3-2.2-.3-.4-.6-.8-.4-1.3.2-.7.9-1 1.6-1.2.9-.4 1.9 0 2.9-.2.5-.2.8-.6 1.2-.9-.2-.3-.5-.7-.5-1.1 0-.6.6-.9.9-1.3.4-1.1 1.1-2.1 2.1-2.7 2.2-.5 4.3-1 6.4-1.6.1-.3 0-.6.3-.8l.9-.6c.2-.4.4-.8.5-1.3 0-.6-.3-1.2.1-1.8-.1-.4-.1-.7 0-1.1.3-.8.4-1.6.8-2.4.2-.4.7-.5 1-.8.2.2.4.4.6.5.4-.2.7-.6 1.2-.5.8.1 1.6.7 1.8 1.5l.9 3c.3.1.7.2 1 .3 0 .3 0 .5.1.8.2.1.5 0 .7.2.4.6.6 1.4.4 2.1-.5.7-1.4 1-1.7 1.8h-.7c-.3.3-.5.6-.9.8-.1 1-1.2 1.4-1.7 2.2h-.3c-.2.8-.6 1.5-.7 2.4.2.3.4.5.5.8l-.3.6c.2.1.3.2.5.4 0-.1.1-.3.1-.5.5 0 1 0 1.3.4.5.6.7 1.3.7 2.1-.6 0-1.1.2-1.6.5-.8.1-1.3.8-2 1.2-.1.4-.2 1-.5 1.3-.8.6-1.6 1.1-2.4 1.7-.3.3-.7.4-1.1.6.1.6.2 1.3.2 1.9-.1.6-.3 1.1-.6 1.5-.4.5-.4 1.3-.9 1.8.5.8.2 1.8-.1 2.6-.1.3-.4.4-.7.5-.4.2-.9.5-1.4.3 0 .4.2.7.3 1v.7l.9.3c.3.5.3 1 .4 1.5.2.3.5.5.7.8-.1.1-.1.2-.2.3.6.3.5 1 .5 1.6-.2.6-.7 1.1-1.2 1.4.2.1.3.2.5.3-.2.5-.3 1.1-.8 1.5-.4.3-1.1.3-1.4.7-.3.4-.8.7-1.2 1 0 .5 0 1.2-.5 1.5s-1.1.1-1.5.5c-.5.5-.8 1.2-.7 1.9-.9.8-1.5 1.9-2.6 2.5-.7.5-.8 1.4-1.3 2.1-.4.5-.4 1.3-.6 1.9-.2.5 0 1 .1 1.4.1.6.5 1.1.7 1.7.3 1 .8 2 1.6 2.7.5.5.9 1.1 1.3 1.6-.1.3-.3.6-.1.9.3.5.6.9.8 1.4.3.7 1 1.3 1.2 2s.1 1.4.2 2.1c0 .3.1.6.2.9 0 .3-.2.6-.3.8 0 .4.1.9-.2 1.3-.5.6-1.3.7-2 .9-.5.2-1-.2-1.1-.7s-.5-.8-.8-1.1c-.3-.1-.7-.1-.9-.4-.2-.2-.3-.5-.4-.8-.1-.5-.6-.7-.8-1-.3-.5-1-.6-1.3-1.2s-.7-1-.9-1.6c-.2-.2-.5-.4-.6-.7-.3-1.1.5-2.3-.2-3.3-1-.3-1.7-1.1-2.3-1.8-.3-.2-.6-.4-1-.5-.1.2-.2.4-.2.6-.7 0-1.2.6-1.9.8-.5.2-1.1.3-1.6.3-.1-.4-.2-.7-.3-1.1-.7-.3-1.5-.7-2.3-.8-1.2 0-2.3.9-3.6.7 0-.1-.2-.2-.2-.3-.7.4-1.6.2-2.4.3.1.3.1.7 0 1-.2.3-.5.6-.7.9.4.2.9.3 1.3.7.3.5-.1 1.2-.6 1.4-.4.1-.8.3-1.2.5-.1-.3-.2-.7-.3-1-.1-.1-.3-.1-.4-.2-.2.2-.4.5-.7.6-.3.1-.7-.1-1-.2-.7.4-1.6.3-2.2-.3-.4-.5-1-.7-1.5-1.1 0 .1-.1.3-.1.4-1 .1-2.1.1-3.1-.2-.4-.1-.9-.1-1.4-.2 0 .1-.1.2-.2.3-1 .4-2 .6-2.9 1.1-.4.2-.5.7-.9 1-.8.6-1.7 1.1-2.7 1.3 0 .2 0 .4-.1.5-.4.1-.8 0-1.1.3-.5.3-.7.9-1.1 1.3-.3.8-.5 1.6-.7 2.4.2.6.3 1.3.7 1.9.2.3.5.8.2 1.1-.3.3-.8.5-1.2.7-.4-.1-.8-.5-1.2-.7-.4-.1-.8 0-1.2-.2-.5-.2-.8-.5-1.3-.7-.4-.2-.8-.3-1.2-.5-.4-.9-1-1.8-1.2-2.8-.1-.3 0-.7-.3-1-.4-.4-.7-.9-1.1-1.4-.8-.9-.9-2.2-1.6-3.2-.4-.4-.7-.8-1.1-1.1l-1.5-.6c-.4-.2-.8-.1-1.2 0-.3.7-.6 1.4-1.2 1.9-.2.2-.6.2-.9.2-.6-.1-1.1-.5-1.7-.9-.6-.4-1.3-.9-1.8-1.4-.4-.5-.7-1.1-.7-1.8 0-.5-.3-.9-.4-1.4-1.1-.7-1.7-1.8-2.6-2.6-.3-.3-.5-.6-.7-.9-1.1-.2-2.2-.3-3.3-.4-.1.4-.1.7-.3 1.1-.6.1-1.2 0-1.8 0s-1.1-.2-1.7-.3c-1-.1-1.9-.3-2.9-.4-.6-.1-1.3-.2-1.9-.4-2.6-1.5-5.2-3-7.7-4.5-.4-.2-1-.5-1-1.1-1.8-.2-3.7-.3-5.5-.6-.1-.6-.2-1.3-.2-1.9 0-.4-.1-.9-.4-1.2-.3-.4-.5-.8-1-1-.5-.3-1-.6-1.5-1 .3 0 .6-.1 1-.1-.5-.1-1.1-.3-1.4-.6-.2-.3-.3-.5-.5-.8-.9-.5-1.9-.5-2.7-1.2-.5-.5-.1-1.3.1-1.9-.2-.3-.3-.6-.3-.9 0-.4-.3-.6-.4-.9-.4-.6-.4-1.4-.8-1.9-.5-.6-.4-1.6.1-2.1-.3-.3-.8-.7-.9-1.2 0-.6-.1-1.3.2-1.9-.3-.3-.6-.6-.9-.8.1-.5.4-1.1 0-1.6-.3-.5-.7-1.1-.7-1.7 0-.4.1-.8.1-1.2 0-.4.3-.7.4-1-.2-.8-.7-1.4-.7-2.2 0-.6.3-1.1.7-1.5s.6-1 .9-1.5c.2-1.2-.2-2.4.3-3.5 0-.3-.1-.5-.1-.8.1-.3.4-.5.5-.8.2-.3.3-.6.5-.9.9-1 1.3-2.3 1.7-3.6.5-1 .8-2.1 1.2-3.1.3-.6.1-1.4.4-2 .3-.7.2-1.4.2-2.1 0-.4.1-.8.1-1.2-.1-.4-.3-.9-.2-1.3.1-.5.2-.9.2-1.4.4 0 .7 0 1.1.1.5.3.9.7 1.4 1s1 .5 1.5.7l.3-.6c-1.1-.9-1.1-1.4-1-1.9zM95.3 62c-.6.2-1 .8-1.5 1.2-.1 0-.3-.1-.4-.1.5.8-.1 1.7-.4 2.4-.3.6-.2 1.2-.4 1.7s0 1-.1 1.5c-.1.4-.3.8-.2 1.2 0 .5.3.9.3 1.3 0 .5-.1 1 .2 1.4.2.4.4.8.5 1.2.3-.2.6-.3.8-.6.5-.7.7-1.6.6-2.4-.1-.7-.6-1.3-.8-2-.1-.5-.1-.9-.1-1.4-.1-.5.3-.9.3-1.4 0-.4 0-.8.2-1.2.2-.5.7-.9 1-1.4.2-.3.7-.4.9-.8.1-.3.2-.7.3-1-.4.1-.8.3-1.2.4z" fill="#fff" opacity=".5"/><path d="M125 63.3c-3.3 0-6.1 1.7-6.7 5.7h-7.7c-.1-7-5.5-12.3-12.2-12.3-4.7 0-8.7 2.5-10.8 6.4l-28.3-6.5c0-.7-.2-1.5-.4-2.2-1.3-3.5-5.3-5.3-8.8-4-1.7.6-3.1 1.9-3.8 3.6-.8 1.7-.8 3.5-.2 5.2s1.9 3.1 3.6 3.8c.9.4 1.9.6 2.8.6.8 0 1.6-.1 2.4-.4 1.9-.7 3.3-2.2 3.9-3.9l27.8 6.6c-.2.9-.4 2.2-.4 3.2H25.5c-.6-4-3.4-5.7-6.7-5.7-3.8 0-6.8 3-6.8 6.7 0 3.8 3.1 6.6 6.8 6.6 3.3 0 6.1-2.7 6.7-5.7h61c.2 1 .4 1.5.6 2.1L41.9 91.4c-.8-1-1.8-1.7-3-2.2-3.5-1.3-7.5.5-8.8 4s.5 7.5 4 8.8c.8.3 1.6.4 2.4.4 2.8 0 5.4-1.7 6.4-4.4.5-1.4.5-2.8.2-4.1l45.3-18.3c.6.9 1.4 1.7 2.3 2.4l-26.9 24.7c-1.1-.8-2.4-1.2-3.9-1.2-3.8 0-6.8 3.1-6.8 6.8 0 3.8 3.1 6.8 6.8 6.8 3.8 0 6.8-3.1 6.8-6.8 0-1.3-.4-2.6-1.1-3.6L93 79.6c1.2.6 3 1 4 1.2v15.8c-3 .6-5.4 3.4-5.4 6.7 0 3.8 3.1 6.8 6.9 6.8s6.9-3.1 6.9-6.8c0-3.3-2.4-6.1-5.4-6.7V80.8c2-.2 3.5-.9 5-1.8l7 7.1c-.8 1.1-1.3 2.5-1.3 3.9 0 3.8 3.1 6.8 6.8 6.8 3.8 0 6.8-3.1 6.8-6.8 0-3.8-3.1-6.8-6.8-6.8-1.3 0-2.5.4-3.6 1l-6.9-6.9c.9-.9 1.6-1.9 2.2-3v-.1c.5-.9.8-2 1-3h8c.6 3 3.4 5.6 6.7 5.6 3.8 0 6.8-2.9 6.8-6.7.1-3.9-3-6.8-6.7-6.8zm-71.1-2.7c-1 .4-2.1.3-3.1-.1-1-.5-1.8-1.3-2.1-2.3-.4-1-.3-2.1.1-3.1.5-1 1.3-1.8 2.3-2.1.5-.2 1-.3 1.4-.3 1.7 0 3.2 1 3.8 2.7.8 2-.3 4.4-2.4 5.2zM18.8 74c-2.3 0-4.1-1.8-4.1-4.1s1.8-4.1 4.1-4.1 4.1 1.8 4.1 4.1S21 74 18.8 74zm21.6 23.1c-.8 2.1-3.2 3.2-5.3 2.4-2.1-.8-3.2-3.2-2.4-5.3.6-1.6 2.2-2.7 3.8-2.7.5 0 1 .1 1.4.3 2.2.8 3.3 3.2 2.5 5.3zm19.5 15.4c-2.3 0-4.1-1.8-4.1-4.1s1.8-4.1 4.1-4.1 4.1 1.8 4.1 4.1-1.8 4.1-4.1 4.1zm42.7-9.2c0 2.3-1.8 4.1-4.1 4.1s-4.1-1.8-4.1-4.1 1.8-4.1 4.1-4.1c2.2 0 4.1 1.8 4.1 4.1zm19.1-13.4c0 2.3-1.8 4.1-4.1 4.1s-4.1-1.8-4.1-4.1 1.8-4.1 4.1-4.1c2.2 0 4.1 1.9 4.1 4.1zm-14.9-17a9.44 9.44 0 0 1-8.4 5.2c-5.2 0-9.5-4.2-9.5-9.5 0-5.2 4.2-9.5 9.5-9.5 5.2 0 9.5 4.2 9.5 9.5-.1 1.6-.4 3-1.1 4.3zM125 74c-2.3 0-4.1-1.8-4.1-4.1s1.8-4.1 4.1-4.1 4.1 1.8 4.1 4.1-1.9 4.1-4.1 4.1z" fill="#FFF"/></svg>