<svg class="icon" xmlns="http://www.w3.org/2000/svg" width="150" height="150" viewBox="0 0 150 150"><path d="M75 4.6v140.8c40 0 70.4-30.4 70.4-70.4C145.4 35 115 4.6 75 4.6z" fill="#B4C37C"/><path d="M4.6 75c0 40 30.4 70.4 70.4 70.4V4.6C35 4.6 4.6 35 4.6 75z" fill="#A4B95C"/><path d="M75 149.8C33.7 149.8.2 116.2.2 75 .2 33.7 33.7.2 75 .2s74.8 33.6 74.8 74.8c0 41.3-33.5 74.8-74.8 74.8zM75 5C36.4 5 5 36.4 5 75s31.4 70 70 70 70-31.4 70-70S113.6 5 75 5z" fill="#231F20"/><path d="M119.1 112L95.8 88.6c-2-2-4.8-2.7-7.3-2.2L83.1 81c9.2-12.2 8.2-29.7-2.9-40.9-12.2-12.2-32.1-12.2-44.3 0-12.2 12.2-12.2 32.1 0 44.3C47 95.5 64.5 96.5 76.7 87.3l5.4 5.4c-.5 2.6.2 5.3 2.2 7.3l23.3 23.3c3.2 3.2 8.3 3.2 11.5 0 3.2-3.1 3.2-8.2 0-11.3zM73.8 78.1c-8.7 8.7-22.9 8.7-31.6 0-8.7-8.7-8.7-22.9 0-31.6 8.7-8.7 22.9-8.7 31.6 0 8.7 8.7 8.7 22.8 0 31.6zm0 0l-25.2 43.7H33.2v-23h15.4v23zM58 96.3c4.5 0 8.9-.9 12.9-2.5v28H55.6V96.2c.8.1 1.6.1 2.4.1zm0-14.5c-.8 0-1.6-.1-2.4-.2V54.4H71v22.5c-3.6 3.2-8.2 4.9-13 4.9zm28.7-1.1c3.7-5.8 5.4-12.4 5.3-18.9h.9v22.1c-1.1-.3-2.3-.4-3.4-.4l-2.8-2.8zm-4.3 21.4l10.5 10.5v9.2H77.6V92.1l1.7 1.7c-.3 3 .9 6.1 3.1 8.3zm17.5 17.5l2.2 2.2h-2.2v-2.2zm15.4-15.5L99.9 88.8V27.5h15.4v76.6z" fill="#FFF"/></svg>