<svg class="icon" xmlns="http://www.w3.org/2000/svg" width="150" height="150" viewBox="0 0 150 150"><path d="M75.6 4.8v140.4c36.2 0 69.2-30.4 69.6-69.7.3-39.3-32.3-70.7-69.6-70.7z" fill="#4B789F"/><path d="M5 74.3c-.4 39.3 29.4 70.6 71.9 70.9V4.8C37.5 4.5 5.3 35 5 74.3z" fill="#006591"/><path fill="#fff" opacity=".5" d="M133.1 69.8l-17.7-.2.1-17.8-28.9-.2-.2 17.7-17.8-.1-.2 28.9 17.7.2-.1 17.8 28.9.2.2-17.7 17.8.1z"/><path d="M100.7 20.4c-1.2-2.2-3.4-3.7-6-3.7-3.8 0-7 3-7 6.9 0 3.8 3 7 6.9 7 2.5 0 4.7-1.3 5.9-3.2 3.7.6 6.9 2.8 8.8 6.2 2.2 4 2.2 8.7-.1 12.6l-22.4 38c-2.3 3.9-6.4 6.2-11 6.2S67.2 88 64.9 84L43.1 45.5c-2.2-4-2.2-8.7.1-12.6 1.9-3.3 5.1-5.4 8.8-6 1.2 2 3.4 3.3 5.8 3.3 3.8 0 7-3 7-6.9 0-3.8-3-7-6.9-7-2.6 0-4.9 1.4-6.1 3.6-6.1.7-11.4 4.1-14.5 9.5-3.6 6.1-3.6 13.4-.2 19.5l21.7 38.4c2.9 5.1 7.7 8.5 13.3 9.6l-.1 18.4c-.1 13.5-6.2 25.1-14.8 29.9 2.9.7 6 1.3 9 1.7 7.5-7.1 12.5-18.6 12.6-31.6l.2-18.4c5.6-.9 10.5-4.2 13.5-9.3l22.4-38c3.6-6.1 3.6-13.3.2-19.5-3-5.4-8.3-9-14.4-9.7zm-76.1 94.5l.2-22c7.8-1.5 13.8-8.4 13.9-16.7.1-9.5-7.5-17.2-17-17.3s-17.2 7.5-17.3 17c-.1 8.3 5.8 15.3 13.6 17l-.2 22c0 1.7.1 3.3.2 4.9 2.7 3.4 5.7 6.6 8.9 9.5-1.5-4.5-2.3-9.3-2.3-14.4z" fill="#FFF"/><path d="M75 149.9h-.7c-20-.2-38.7-8.2-52.7-22.4C7.5 113.2-.1 94.3.1 74.3.5 33.2 34 .1 75 .1h.7c20 .2 38.7 8.2 52.7 22.4 14 14.3 21.6 33.2 21.4 53.2-.3 41.1-33.8 74.2-74.8 74.2zm0-145c-38.3 0-69.7 31-70 69.4-.2 18.7 6.9 36.4 20.1 49.7 13.1 13.4 30.6 20.8 49.3 21h.7c38.3 0 69.7-31 70-69.4.2-18.7-6.9-36.4-20.1-49.7-13.1-13.4-30.6-20.8-49.3-21H75z" fill="#231F20"/></svg>